<svg id="Layer_1" data-name="Layer 1" xmlns="http://www.w3.org/2000/svg" viewBox="0 0 3174.608 890.191"><defs><style>.cls-1{fill:none;stroke:#dc5c26;stroke-miterlimit:10;stroke-width:7px;opacity:0.8;isolation:isolate;}.cls-2{fill:#31c1d4;}.cls-3{fill:#f4f4fa;}.cls-4{fill:#dc5c26;}</style></defs><title>p2</title><line class="cls-1" x1="850.898" y1="106.529" x2="850.898" y2="890.191"/><path class="cls-2" d="M271.136-1128.277c-10.175,2.381-20.566,4.763-30.74,7.144-16.669,3.68-28.143-4.329-33.555-18.617-5.845-15.37.217-30.091,15.8-33.988,41.565-10.824,83.562-20.133,125.776-27.493,13.639-2.381,24.246,8.227,27.493,23.38,8.01,37.668,17.1,75.119,24.246,113,3.247,17.318-1.732,32.039-22.081,35.286-19.7,3.031-29.225-8.443-33.338-25.761-3.247-13.422-5.845-27.06-9.525-43.729-15.586,21.648-29.441,41.564-44.162,60.831C167.009-876.509,3.566-781.257-197.545-750.3c-29.442,4.546-59.532,4.763-89.407,6.278-20.782,1.083-40.049-2.814-42.431-28.575-1.732-19.051,12.989-28.143,41.132-29.009,242.459-8.01,430.148-114.085,564.8-315.2a19.358,19.358,0,0,0,1.731-4.979c2.165-1.948,6.278-4.762,3.464-6.927C280.012-1130.225,275.033-1128.493,271.136-1128.277Z" transform="translate(352.241 1401.712)"/><path class="cls-3" d="M240.612-723.457c0-51.089-.217-102.179,0-153.269.217-29.874,9.742-39.616,39.183-40.049,17.535-.432,35.287-.432,52.821,0,23.164.433,36.153,11.474,36.153,35.72V-561.1c0,20.566-11.257,30.524-31.173,30.741-22.081.216-44.162.216-66.027,0-20.566-.217-29.658-10.824-29.442-31.823.65-53.688.217-107.375.217-161.279Z" transform="translate(352.241 1401.712)"/><path class="cls-3" d="M60.5-655.7c0-30.74.432-61.7-.217-92.437-.433-23.38,9.958-33.771,33.554-32.9,20.133.866,40.482.649,60.832,0,22.081-.65,32.905,9.958,32.905,31.389.433,61.7.866,123.178.866,184.876,0,22.3-10.175,34.637-33.555,34.2-20.349-.217-40.482-.65-60.831,0-25.112.866-34.637-11.474-33.988-35.5C61.149-595.733,60.5-625.607,60.5-655.7Z" transform="translate(352.241 1401.712)"/><path class="cls-3" d="M8.111-619.113c0,19.267.217,38.751,0,58.018-.217,19.916-9.958,30.74-30.74,30.957-20.133.216-40.266,2.381-60.4,1.948-26.844-.65-35.5-10.391-36.152-37.018-1.083-35.936,1.515-71.872-1.732-108.025-2.165-23.6,10.174-36.369,33.987-37.234,21-.866,42.214-.65,63.212,0,21.432.433,31.823,12.339,32.04,33.554C8.111-657.646,8.111-638.379,8.111-619.113Z" transform="translate(352.241 1401.712)"/><path class="cls-3" d="M-174.166-603.093c0,13.2-.433,26.411.217,39.616,1.082,25.112-12.556,35.287-35.287,35.5-100.014.65-92.654,6.5-92.221-86.809.216-63.212.866-64.078,64.728-64.078C-174.166-678.862-174.166-678.862-174.166-603.093Z" transform="translate(352.241 1401.712)"/><path class="cls-4" d="M-263.14-973.926c1.732,3.9,3.464,7.361,4.762,10.825,3.9,9.958,2.6,19.05-6.711,24.678-10.174,6.278-19.916,3.464-26.843-6.061-18.184-24.463-36.153-49.141-54.337-73.387-7.144-9.526-8.66-18.834-.217-27.493s18.834-8.876,26.844,0c7.793,8.226,9.741,1.732,13.2-3.248q95.469-142.552,191.369-285.322c4.763-6.927,5.2-11.907-.649-18.4-9.742-10.824-8.443-22.3,3.68-29.875,12.339-7.793,22.081-.866,29.874,9.742q72.09,97.092,144.61,193.751c19.7,26.194,39.183,52.605,58.883,78.8,8.442,11.041,17.1,22.731,3.68,34.854-14.071,12.556-24.03,2.814-32.472-9.092-4.33-5.845-8.443-9.742-17.319-6.711C38.2-1068.528.75-1056.838-36.7-1045.8c-10.392,3.03-9.959,9.308-9.742,17.968,1.082,42.213-17.751,69.923-54.77,83.128-32.039,11.257-66.893-.649-90.489-32.472-8.66-11.69-15.587-17.1-30.524-9.525C-234.781-980.42-249.069-978.255-263.14-973.926Zm99.365-31.173c10.391,20.133,26.627,28.143,46.543,24.679a38.679,38.679,0,0,0,31.823-30.957c1.948-8.443,5.412-22.081-13.855-14.288-20.566,8.227-42.43,13.639-64.511,20.566Z" transform="translate(352.241 1401.712)"/><path class="cls-4" d="M114.837-1202.746c-18.834,4.113-28.143-1.3-32.04-12.773-4.113-12.123,1.948-22.3,13.639-25.978,23.813-7.36,48.058-12.989,72.088-19.05,12.989-3.247,21.865,3.464,25.112,14.937,3.464,12.339-3.464,21.865-14.937,25.545C155.751-1213.137,132.155-1207.509,114.837-1202.746Z" transform="translate(352.241 1401.712)"/><path class="cls-4" d="M153.37-1322.46c1.732,9.741-3.464,16.668-10.607,22.081-17.968,13.854-36.152,27.06-54.337,40.915-11.69,8.875-22.947,7.144-30.74-3.681-8.01-10.824-5.629-22.514,5.412-30.956,18.617-14.288,37.018-28.793,56.5-42C134.1-1346.273,150.989-1338.7,153.37-1322.46Z" transform="translate(352.241 1401.712)"/><path class="cls-4" d="M89.075-1379.395a34.364,34.364,0,0,1-3.031,10.174c-11.906,20.133-24.245,40.049-36.585,59.966C42.315-1298,32.574-1292.37,19.8-1300.6c-12.123-7.793-12.988-19.267-6.277-30.524,11.689-20.349,24.245-40.049,36.585-59.965,5.629-9.092,14.288-12.123,24.246-9.958C83.663-1399.095,88.642-1392.384,89.075-1379.395Z" transform="translate(352.241 1401.712)"/><path class="cls-3" d="M2148.029-617.814c29.009,22.731,29.009,61.048-.865,82.913-32.256,23.6-69.058,11.473-104.128,13.422-6.927.432-4.113-7.144-3.68-11.257,6.061-54.554,12.556-108.891,18.4-163.444,1.082-9.741,4.979-12.339,13.638-12.123,19.7.866,39.4.433,59.1,1.083,19.483.649,36.8,6.711,43.513,29.225,6.494,21.215-1.3,39.832-22.081,55.852C2150.627-620.628,2149.328-619.329,2148.029-617.814Zm-44.595-10.391c22.514,0,32.9-8.876,32.9-27.926,0-21-13.638-21.865-27.71-21.215-28.359,1.082-13.421,26.41-17.751,40.265C2086.332-623.659,2098.888-630.153,2103.434-628.205Zm-20.566,58.883c-6.494,16.236,2.815,18.184,15.8,16.669,4.33-.433,8.876-.217,13.206-.866,16.019-2.6,19.7-14.937,19.483-29.875-.216-15.153-10.391-16.669-21.215-17.1-24.03-1.3-24.03-1.3-27.277,31.174Z" transform="translate(352.241 1401.712)"/><path class="cls-3" d="M1215.211-617.6c22.3,16.452,27.277,28.142,21.865,50.656-5.845,24.463-27.493,44.163-53.254,45.678-22.3,1.3-44.6.216-66.893.866-7.36.216-9.958-1.948-9.092-10.391,6.711-55.853,12.989-111.921,19.05-167.773,1.083-9.526,6.5-8.443,12.124-8.443,17.751,0,35.719-.217,53.47,0,28.792.433,45.245,11.04,50.008,31.39C1248.333-651.8,1240.323-634.7,1215.211-617.6Zm-38.966,17.968c-23.813-.217-24.9,2.381-26.195,36.8-.433,13.421,6.278,11.906,14.072,12.123,24.895.216,35.719-8.01,36.369-27.927C1200.923-598.98,1188.8-600.495,1176.245-599.629Zm-3.031-28.143c22.947-.433,31.823-9.309,31.39-29.008-.433-20.566-14.288-19.267-26.843-19.7-15.587-.433-19.267,8.443-19.484,39.183-.217,15.8,10.607,6.494,14.937,9.525Z" transform="translate(352.241 1401.712)"/><path class="cls-3" d="M593.693-707c12.989,0,23.6.216,34.2,0,9.092-.217,11.474,6.711,13.855,14.288,6.494,21.864,12.989,43.729,21,69.923,10.607-20.133,21-35.719,27.709-53.254,10.608-27.493,27.277-37.884,55.853-28.576-13.422,22.081-25.762,45.029-40.482,66.027-21,29.875-34.637,61.7-34.421,99.8,0,6.062,1.516,16.02-6.277,17.319a106.13,106.13,0,0,1-32.04-.866c-3.9-.65-2.381-7.361-1.3-11.041,12.123-43.08.433-82.046-16.886-120.364C607.115-669.986,601.27-687.521,593.693-707Z" transform="translate(352.241 1401.712)"/><path class="cls-3" d="M1253.745-561.529c3.03-28.142,4.762-54.986,9.092-81.4,3.247-20.35,19.483-7.794,29.658-9.742,11.473-2.381,7.144,8.226,6.711,13.855-2.165,23.163-5.2,46.327-7.36,69.707-.65,6.278-3.031,14.72,4.546,18.184s13.422-2.165,18.4-7.577a56.913,56.913,0,0,0,14.288-32.9l4.546-40.915c1.948-18.617,17.319-27.493,34.2-20.782,6.5,2.6,4.33,7.577,3.9,11.69-3.9,36.152-7.794,72.3-12.123,108.674-.65,4.979.217,12.339-7.36,11.906-8.01-.433-18.834,4.546-23.164-4.33-5.845-12.122-10.174-7.793-16.885-2.6-13.422,10.174-28.143,14.287-42.864,4.546C1255.693-531.871,1253.528-547.241,1253.745-561.529Z" transform="translate(352.241 1401.712)"/><path class="cls-3" d="M840.265-570.4c2.382-21.215,4.113-47.41,8.443-72.954,3.464-20.566,19.7-6.711,29.658-9.092,10.824-2.382,7.144,7.793,6.494,13.854-2.381,23.813-5.2,47.626-7.577,71.439-.649,5.845-1.732,12.989,4.547,16.236,5.844,3.031,11.256-.432,15.586-4.546a51.33,51.33,0,0,0,16.453-33.554c1.732-17.752,3.68-35.5,6.278-53.038,3.247-21.432,18.833-8.443,28.575-10.608,12.123-2.814,8.226,7.361,7.577,14.5-3.9,33.988-7.36,68.192-11.474,102.179-.649,5.629,2.6,15.8-7.793,15.154-8.227-.433-19.484,5.2-23.813-6.494-4.33-11.474-7.794-6.5-13.422-2.165-13.638,10.824-28.575,16.452-44.379,6.711C840.265-531.871,838.967-548.756,840.265-570.4Z" transform="translate(352.241 1401.712)"/><path class="cls-3" d="M1586.26-634.266c19.267-16.453,36.369-31.174,57.8-17.1,20.565,13.638,16.019,37.018,14.071,58.017-1.732,19.916-4.763,39.616-6.5,59.316-2.164,24.679-19.266,10.607-29.225,12.556-14.071,2.6-8.226-9.958-7.576-16.669,2.164-23.164,4.979-46.327,7.36-69.707.649-6.062,1.732-12.989-5.2-15.8-6.061-2.382-11.257.866-15.586,5.2-10.608,10.175-15.587,23.164-17.319,37.885-1.732,14.937-2.814,30.09-4.762,45.028-.65,5.195,3.03,14.071-6.278,14.287-9.958.217-20.349,2.815-29.874-1.948-1.3-.649-1.3-6.278-.866-9.309,3.68-34.853,7.577-69.707,11.474-104.344.865-8.659.216-18.184,13.2-16.885C1577.168-652.451,1588.642-655.049,1586.26-634.266Z" transform="translate(352.241 1401.712)"/><path class="cls-3" d="M827.276-597.681c-.433,51.523-41.348,89.84-82.046,77.284a43.548,43.548,0,0,1-23.38-16.669c-15.154-21-14.071-58.234,2.165-85.294,15.154-25.328,41.781-37.668,67.109-30.957C814.287-647.255,827.71-626.689,827.276-597.681Zm-79.015,21.432c.865,10.174-1.948,25.328,13.421,27.926,14.721,2.381,20.783-10.391,24.679-23.164a82.676,82.676,0,0,0,3.464-36.369c-1.082-7.36-2.382-15.153-11.041-17.1a17.91,17.91,0,0,0-19.916,8.227C751.291-605.041,748.91-591.836,748.261-576.249Z" transform="translate(352.241 1401.712)"/><path class="cls-3" d="M2356.068-519.531c-30.74,0-48.925-21.432-48.708-57.151.216-43.946,30.524-80.531,66.676-80.1,29.225.216,49.574,24.462,49.358,58.233C2422.744-554.385,2393.3-519.531,2356.068-519.531Zm30.091-78.8c-.866-11.041,1.3-24.9-12.989-27.71-13.855-2.6-20.349,8.659-24.463,20.782a82.456,82.456,0,0,0-4.329,38.317c1.082,7.361,2.165,15.37,10.607,17.535,9.092,2.381,16.02-1.082,21.215-9.525C2383.561-570.837,2385.726-584.043,2386.159-598.33Z" transform="translate(352.241 1401.712)"/><path class="cls-3" d="M2182.666-576.9c.217-52.821,42-91.355,83.129-76.418a40.7,40.7,0,0,1,24.462,21.432c13.855,28.575,9.093,56.069-6.494,81.613-14.937,24.463-37.019,34.637-64.079,29.658C2196.088-524.727,2182.45-545.509,2182.666-576.9Zm78.15-20.782c-1.082-10.607,2.815-25.978-12.989-28.575-14.72-2.381-21,10.607-24.678,23.163-3.464,12.339-5.629,25.112-3.031,38.317,1.515,6.928,2.6,13.639,10.391,15.154a17.319,17.319,0,0,0,18.618-6.711c9.092-11.69,11.257-25.545,11.69-41.348Z" transform="translate(352.241 1401.712)"/><path class="cls-3" d="M1726.107-519.531c-32.039.216-49.574-16.236-53.687-48.276-6.711-52.388,37.667-99.365,80.748-85.943,14.72,4.547,25.544,13.639,27.06,30.524,1.515,17.968-8.01,29.442-22.731,36.369-11.041,5.412-22.947,7.144-34.637,10.175-4.762,1.3-14.721-2.815-13.854,8.659.649,9.525,5.195,16.886,15.153,18.185,9.742,1.082,19.051,0,27.06-6.928,9.309-8.009,16.02-3.9,22.081,5.2,8.443,12.339-4.546,13.638-8.659,17.751A51.089,51.089,0,0,1,1726.107-519.531Zm-14.72-80.315c11.256-1.3,20.349-3.463,28.575-8.226,5.412-3.031,9.092-8.01,6.278-14.937-3.031-7.361-9.525-6.711-14.721-4.979-12.123,3.9-17.1,14.287-20.133,28.142Z" transform="translate(352.241 1401.712)"/><path class="cls-3" d="M2669.966-520.4c-32.039,0-51.09-20.133-51.739-54.553-.649-39.4,21-71.872,53.687-80.315a46.262,46.262,0,0,1,37.019,4.979c22.73,13.639,23.813,43.513,1.948,58.667-12.556,8.659-26.844,11.906-41.565,14.071-5.412.866-14.721-1.3-14.288,8.876.217,9.525,5.2,17.1,14.937,18.834a31.594,31.594,0,0,0,27.06-7.144c9.308-8.01,16.02-4.114,22.3,4.979,8.443,12.339-4.329,13.855-8.659,17.751C2698.325-523.211,2687.934-520.614,2669.966-520.4Zm-12.339-81.4c11.69-.216,21.432-2.381,30.091-8.443a11.273,11.273,0,0,0,4.113-14.288c-2.165-5.412-6.928-5.412-11.473-4.762-13.856,2.6-19.051,13.422-22.732,27.493Z" transform="translate(352.241 1401.712)"/><path class="cls-3" d="M2574.5-520.4c-23.6-.217-33.988-11.257-32.689-35.719.865-16.453,3.9-32.689,4.546-49.142.217-8.659,9.309-21.431-9.092-24.679-5.412-.866-5.195-20.132,3.03-21.215,16.886-2.165,17.536-14.937,21.432-26.627,1.948-5.845,2.814-13.205,8.659-15.154,5.845-1.732,13.206-2.6,18.618-.216,6.927,2.814,3.247,11.257,1.948,16.236-3.9,16.019-1.732,25.545,16.236,22.514,6.927-1.082,9.092,3.464,7.793,9.958s1.732,18.184-9.308,16.02c-21-4.114-22.081,10.174-23.38,25.977-.65,10.175-2.382,20.35-3.248,30.741-.649,9.958-6.711,23.38,12.989,19.267,8.443-1.732,8.659,10.174,11.257,16.452,3.247,7.361-3.9,8.659-8.01,11.041A34.305,34.305,0,0,1,2574.5-520.4Z" transform="translate(352.241 1401.712)"/><path class="cls-3" d="M1413.941-517.583c-9.959-.216-18.834-1.732-26.628-6.494-5.2-3.248-15.586-4.546-9.958-15.154,4.546-8.443,8.876-19.916,21.865-12.123a41.653,41.653,0,0,0,6.711,3.9c9.309,3.247,20.133,6.711,24.895-5.629,4.98-12.989-6.494-15.8-14.5-19.05-15.8-6.062-29.658-13.422-29.441-35.07.216-19.483,11.473-37.668,29.008-44.162,19.267-7.144,37.667-4.763,54.337,8.009,5.412,4.114,2.165,8.227-.65,11.907-4.329,5.2-6.494,14.071-16.236,9.525-10.824-4.979-25.977-14.071-31.389,1.949-6.278,18.184,13.854,16.885,23.38,22.3,20.132,11.907,26.41,34.421,13.638,55.636C1448.145-524.727,1431.693-519.1,1413.941-517.583Z" transform="translate(352.241 1401.712)"/><path class="cls-3" d="M1820.71-519.531c-9.093,0-17.968-.866-25.761-6.062-4.98-3.463-15.154-4.762-8.443-15.8,4.762-8.01,9.092-17.535,20.782-11.69a64.926,64.926,0,0,0,8.443,4.763c9.525,4.113,19.7,5.844,24.246-6.711,4.113-11.907-6.278-14.721-13.639-17.968-27.926-12.989-34.853-24.463-28.792-48.276,5.629-22.081,29.008-38.1,52.389-35.07a69.293,69.293,0,0,1,21.648,7.361c4.979,2.381,14.071,4.546,8.659,14.071-4.113,6.927-8.01,17.1-19.051,11.257A27.655,27.655,0,0,0,1856-626.04c-9.092-2.382-20.782-7.144-25.545,4.329-5.412,13.639,7.794,15.8,16.02,19.7,24.029,11.257,30.957,22.947,26.843,44.812C1868.552-534.252,1847.986-519.315,1820.71-519.531Z" transform="translate(352.241 1401.712)"/><path class="cls-3" d="M1921.157-519.315c-9.742-.433-18.4.217-25.545-4.979-5.412-3.9-17.319-3.68-11.907-15.8,4.33-9.958,10.175-20.349,23.38-11.474a12.216,12.216,0,0,0,1.732,1.083c10.175,5.845,22.731,10.174,28.143-3.248,6.278-15.153-8.659-16.885-17.319-20.565-27.709-12.34-34.853-37.235-17.535-62.13,15.587-22.081,52.389-26.844,72.522-9.526,3.9,3.248,7.36,6.062,2.814,11.257-4.763,5.845-6.927,15.8-17.535,11.474-5.845-2.381-11.474-5.845-18.185-5.2-6.494.433-13.2-.216-14.937,8.876-1.515,7.577,3.681,11.257,8.876,14.071,2.815,1.516,5.845,2.6,8.876,3.9,14.937,6.278,28.143,14.721,27.493,34.854-.649,20.349-10.607,34.42-27.926,42.863C1935.878-520.4,1927.868-520.4,1921.157-519.315Z" transform="translate(352.241 1401.712)"/><path class="cls-3" d="M2465.391-520.83c-10.391,1.3-18.834,0-25.978-4.546-5.412-3.464-17.1-4.546-10.391-16.886,4.763-8.876,9.959-18.834,22.081-10.824a51.283,51.283,0,0,0,10.175,5.412c8.659,3.031,17.318,2.165,21-7.793,3.9-10.608-4.762-14.288-11.69-17.535-30.74-15.154-36.8-24.9-30.956-48.708,8.226-33.339,56.5-48.059,80.314-24.679,4.33,4.329,4.547,7.36,1.516,11.906-4.113,6.062-7.577,13.639-16.453,10.391-7.144-2.814-14.071-5.845-22.081-5.2-5.412.433-10.175,1.948-11.69,8.226-1.515,6.5,2.165,10.391,6.927,13.205a64.089,64.089,0,0,0,10.392,4.763c17.318,7.144,30.307,17.535,27.276,40.7a48.233,48.233,0,0,1-39.616,41.348A58.952,58.952,0,0,1,2465.391-520.83Z" transform="translate(352.241 1401.712)"/><path class="cls-3" d="M2780.8-632.535c11.257-10.607,17.318-20.132,27.926-22.514,9.092-1.948,15.8-.866,12.989,11.907-2.6,11.69.649,26.844-19.917,24.9-12.123-1.082-18.618,13.855-21,25.978a384.564,384.564,0,0,0-8.01,56.718c-1.516,25.112-18.4,12.123-28.36,13.855-14.288,2.6-8.226-9.309-7.577-16.236,3.248-32.689,6.928-65.378,10.825-97.85,1.082-8.443-1.732-19.916,13.2-19.05C2772.8-653.966,2782.969-653.966,2780.8-632.535Z" transform="translate(352.241 1401.712)"/><path class="cls-3" d="M1018.646-630.8c3.247-5.628,4.979-10.391,8.227-13.638,7.793-8.01,19.266-14.937,26.627-6.278,6.278,7.36-1.948,20.566-3.247,31.39-.433,3.247-3.9,3.247-6.278,2.814-22.947-3.247-28.143,14.937-32.039,32.472-3.681,16.669-4.98,33.988-6.712,50.873-2.164,23.381-18.4,9.959-27.925,11.907-14.072,2.814-8.443-9.092-7.577-16.236,3.464-33.555,7.144-66.893,11.257-100.448.865-6.278-2.165-16.669,9.741-15.37,9.309,1.083,21.865-4.762,23.164,12.989C1013.884-638.379,1015.4-636.648,1018.646-630.8Z" transform="translate(352.241 1401.712)"/><path class="cls-3" d="M1496.637-521.263c-16.019,4.113-17.968-3.68-15.8-18.617,4.546-32.689,8.01-65.378,10.824-98.283,2.165-25.328,19.267-13.638,30.307-14.5,14.937-1.3,6.711,12.123,6.278,17.751-2.6,31.39-7.793,62.78-9.958,94.386C1517.2-523.644,1512.007-516.933,1496.637-521.263Z" transform="translate(352.241 1401.712)"/><path class="cls-3" d="M1515.687-668.038c-13.206-1.082-21-8.009-21.431-21.864-.433-14.937,8.442-23.813,20.782-24.246,12.556-.433,21.648,8.443,21.865,23.164C1536.9-676.047,1528.027-669.336,1515.687-668.038Z" transform="translate(352.241 1401.712)"/><path class="cls-2" d="M1924.164-1007.3c-23.519-7.016-47.258-13.5-70.484-21.228-17.133-5.7-45.6,2.65-46.193-25.252-.587-27.665-8.659-56.037,29.123-75.381,55.867-28.608,109.167-61.048,171.843-77.081,9.412-2.409,23.269-2.7,22.927-14.27-.409-13.916-15.013-9.465-23.94-9.467-81.947,0-163.894.71-245.841.823-37.564.054-46.392,20.671-46.273,49.465.322,77.934-1.112,155.891.806,233.785.623,25.353-8.675,31.13-34.867,30.741-24.679-.369-36.492-3.289-35.767-29.9,2.12-77.886.217-155.854.994-233.78.338-33.951-13.491-51.627-54.03-51.016-71.564,1.082-143.168-.2-214.749-.2-8.066,0-18.472-2.991-22.354,7.188-3.992,10.469,3.018,17.318,11.112,23.611,37.292,28.961,81.811,39.315,129.642,41.222,47.211,1.882,66.475,18.915,64.393,61.321-3.052,62.178-29.541,115.837-81.932,156.733-62.734,48.957-136.476,34.834-175.116-31.717a135,135,0,0,1-19.065-68.447c-.148-54.149-2.013-108.328-.392-162.426.7-23.556-8.811-28.19-32.606-28.039-80.659.52-80.663-.245-80.663,72.433,0,97.745.409,195.495-.567,293.234-.111,11.08,10.986,28-10.773,33.338-17.842,4.384-28.623-2.855-38.046-18-26.073-41.9-69.164-43.381-114.952-34.774-41.348,7.776-81.8,20.43-124.6,20.549-79.059.216-121.92-52.064-96.873-119.065,3.806-10.175,3.271-33.518,23.077-24.928,17.948,7.793,50.46,14.4,43.484,40.963-10.514,40.049,14.6,43.343,45.284,41.4a429.173,429.173,0,0,0,73.19-11.341c42.482-10.27,84.384-21.912,132.24-2.788-5.118-63.773,12.439-124.284-28.74-180.63-19.975-27.331-35.237-28.541-61.264-10.848-28.279,19.217-52.805,41.523-76.083,65.408-7.293,7.484-11.735,28.22-27.631,16.559-15.329-11.244-41.924-16.345-40.441-41.42,3.4-57.521,3.526-57.515-58.311-56.965-25.208.217-46.2-38.936-33.722-62.922,48.672-93.6,187.707-116.6,268.312-43.946,16.064,14.478,29.891,30.981,48.017,49.972,12.541-21.832,7.661-41.629,7.109-60.082-.537-17.877,6.46-21.824,25.125-21.817,159.423.043,319.117-5.7,478.11,1.472,50.834,2.295,99.958-1.286,149.937-1.732,131.653-1.184,263.332.42,395,.407,17.158,0,28.309,2.109,26.11,21.216-1.732,14.989,5.031,35.145-23.194,32.543-45.754-4.217-49.224,17.86-48.2,51.512,2.544,83.155,1.07,166.413.49,249.629-.063,9.012,7,22.958-10.8,25.545-12.816,1.87-25.5,2.106-34.54-10.757-32.039-45.585-82.7-69.389-134.651-91.39Zm-568.647-129.431c0,41.806-1.963,77.413.751,112.726,1.581,20.555,7.2,43.865,35.046,49.754,26.682,5.639,43.626-11.214,58.909-27.407,17.286-18.319,27.985-40.09,35.709-62.983,7.417-21.984,11.869-39.155-26.971-39.036-34.661.108-67.852-12.72-103.444-33.055Zm539.13,53.657c52.949,14.383,93.758,36.2,138.489,60.207,0-36.13-.914-67.446.342-98.691.762-18.966-7.679-23.975-25.761-17.607-37.629,13.259-74.879,27.333-113.07,56.09Zm-968.6-64.791c26.291-15.723,45.56-30.388,67.615-39.644,27.71-11.63,16.583-21.716,2.431-33.653-39.659-33.452-98.022-28.7-140.063,13.836C901.025-1209.189,919.426-1185.14,926.051-1147.868Z" transform="translate(352.241 1401.712)"/><path class="cls-2" d="M1924.164-1007.3l-1.321-.562c-19.684,14.965,3.113,18.9,9.185,25.886,15.663,18.033,17.41,36.263,2.562,54.316-12.472,15.168-30.894,20.829-50.59,13.993-20.817-7.231-32.853-22.081-30.632-43.108,2.412-22.817,17.38-34.9,42.647-37.746C1906.637-995.719,1924.549-985.776,1924.164-1007.3Z" transform="translate(352.241 1401.712)"/></svg>