<svg xmlns="http://www.w3.org/2000/svg" viewBox="0 0 1568.681 421.405"><defs><style>.cls-1,.cls-5{fill:none;}.cls-1{stroke:#dc5c26;stroke-miterlimit:10;stroke-width:7px;opacity:0.8;}.cls-2{fill:#31c1d4;}.cls-3{fill:#f4f4fa;}.cls-4{fill:#dc5c26;}</style></defs><title>ProChar</title><g id="Layer_2" data-name="Layer 2"><line class="cls-1" x1="458.522" y1="49.249" x2="458.522" y2="411.309"/><path class="cls-2" d="M-694.7,1512.228c15.7-15.534,31.638-21.7,50.467-20.265,21.9,1.675,36.4,13.881,37.4,35.813,1.471,32.366.738,64.827,1.175,97.245.073,5.45-2.2,6.721-7.149,6.583-13.38-.373-30.034,4.355-39.224-1.9-8.93-6.076-2.324-23.717-3-36.25-.623-11.518-.421-23.083-.507-34.627-.124-16.7-4.355-23.307-15.159-23.494-11.02-.191-23.705,12.253-23.9,24.352-.339,20.431-.376,40.877.053,61.3.156,7.448-.735,11.47-9.86,10.74-12.866-1.029-29.753,4.155-37.7-2.217-8.374-6.711-2.437-24.158-2.526-36.881-.327-46.645.131-93.3-.35-139.939-.095-9.3,2.329-12.55,11.834-11.768,12.358,1.016,28.84-3.834,36.128,2.4,7.627,6.529,1.852,23.359,2.262,35.675C-694.434,1488.97-694.7,1498.951-694.7,1512.228Z" transform="translate(1861.34 -1393.276)"/><path class="cls-2" d="M-1357.77,1540.274c0-27.562.294-55.129-.185-82.683-.138-7.922,1.523-10.781,10.166-10.555,24.132.632,48.3-.107,72.438.3,33.264.565,60.96,30.908,60.51,65.68-.456,35.227-26.911,62.176-61.346,62.493-30.375.279-30.375.279-30.305,29.876.067,27.844.067,27.844-27.543,27.844-23.735,0-23.735,0-23.735-23.606Zm50.857-29.235c.305,23.72-2.688,20.6,14.313,20.8,20.573.242,25.845-3.842,26.11-19.369.277-16.147-5.136-20.681-24.714-20.7C-1306.912,1491.752-1306.912,1491.752-1306.913,1511.039Z" transform="translate(1861.34 -1393.276)"/><path class="cls-2" d="M-837.294,1445.854c27.85.489,51.605,9.247,69.634,31.247,5.029,6.135,7.03,10.938-1.772,15.263-3.162,1.554-5.869,4.025-8.784,6.078-6.189,4.359-11.82,10.456-18.707,12.648-9.05,2.88-9.823-8.617-15.639-12.515-21.766-14.59-53.353-6.848-63.693,16.983-7.251,16.711-7.293,33.792.864,50.293,13.726,27.763,51.108,32.088,69.817,7.56,4.7-6.167,7.463-5.389,12.506-2.252,8.317,5.175,16.451,10.832,25.3,14.915,9.347,4.312,7.277,9.021,2.616,15.17-15.284,20.161-36.948,29.046-60.887,32.33-51.16,7.019-96.6-27.528-106.127-79.659-8.68-47.489,22.368-93.751,71.011-105.236C-853.412,1446.852-845.257,1446.752-837.294,1445.854Z" transform="translate(1861.34 -1393.276)"/><path class="cls-2" d="M-494.6,1611.823c-18.3,19.517-38.923,27.471-63.766,19.641-18.679-5.887-30.552-20.621-31.143-39.129-.592-18.554,8.346-32.349,24.7-41.032,16.845-8.944,34.759-10.162,53.228-6.06,2.836.63,7.023,1.969,8.462.665,2.82-2.554.987-6.6-.321-9.9-3.547-8.944-11.64-10.56-19.716-11.035a58.823,58.823,0,0,0-36.725,10.067c-7.354,4.933-10.144,2.755-13.557-4.442-11.369-23.973-11.529-24.21,14.554-32.9a116.4,116.4,0,0,1,67.163-2.3c22.521,5.85,36.178,20.414,38.808,43.808,1.137,10.109.828,20.371,1.41,30.55.43,7.519-2.712,16.088,7.547,20.64,3.22,1.429,1.956,39.152-.513,41.213-9.313,7.775-39.761,1.409-46.061-9.757C-492.035,1619.19-492.874,1616.15-494.6,1611.823Zm-24.865-41.871c-13.279.026-22.888,6.427-22.752,15.109.172,11.028,8.178,13.922,17.278,13.972,13.22.073,23.509-8.412,23.123-18.572C-502.326,1567.087-513.989,1572.856-519.466,1569.952Z" transform="translate(1861.34 -1393.276)"/><path class="cls-2" d="M-944.258,1565.377c-.665,41.44-32.183,70.68-76,70.509-45-.175-76.223-30.746-75.32-73.746.881-41.987,32.428-70.146,77.9-69.537C-974.138,1493.186-943.585,1523.47-944.258,1565.377Zm-99.986-1.4c-.037,17.689,9.159,29.392,23.442,29.832,15.048.464,25.259-11.439,25.3-29.5.044-18.491-9.3-29.434-24.971-29.242C-1035.595,1535.253-1044.2,1545.722-1044.244,1563.974Z" transform="translate(1861.34 -1393.276)"/><path class="cls-2" d="M-1151.1,1518.527c10.366-13.987,20.872-23.716,36.475-25.78,7.021-.928,12.733-.387,11.094,9.143a33.674,33.674,0,0,0-.042,5.318c-.083,9.313,2.755,20.129-1.081,27.52-3.894,7.5-16.161,3.009-24.532,5.642-12.365,3.889-19.9,9.189-18.9,24.106,1.329,19.88.082,39.918.463,59.879.131,6.883-1.892,9.4-9.04,9.026a299.313,299.313,0,0,0-32.123,0c-7.329.4-8.937-2.462-8.9-9.162q.373-60.567-.022-121.137c-.049-6.688,2.352-8.423,8.5-7.914,5.32.441,10.706.092,16.062.092C-1152.653,1495.265-1152.653,1495.265-1151.1,1518.527Z" transform="translate(1861.34 -1393.276)"/><path class="cls-2" d="M-378.007,1517.916c10.939-14,21.143-24.688,37.8-26,7.143-.562,11.379.472,10.121,8.809a50.4,50.4,0,0,0-.054,6.645c-.14,8.85,2.319,18.935-1.156,26.219-3.811,7.989-15.359,3.142-23.3,5.479-12.89,3.8-20.748,9.214-19.49,24.825,1.526,18.947,0,38.118.537,57.171.221,7.847-1.437,11.261-10.154,10.647-12.836-.9-29.566,4.149-37.6-2.173-8.5-6.689-2.393-24.028-2.587-36.683-.443-28.817.449-57.664-.448-86.461-.33-10.606,3.249-13.275,12.755-12.04,3.948.513,8.019.085,12.034.085C-378.869,1494.439-378.869,1494.439-378.007,1517.916Z" transform="translate(1861.34 -1393.276)"/><path class="cls-2" d="M-1507.923,1519.684c-4.733,1.1-9.454,2.249-14.2,3.288-7.676,1.68-12.988-2-15.509-8.628-2.7-7.094.146-13.875,7.327-15.732,19.182-4.959,38.573-9.3,58.09-12.674,6.283-1.087,11.245,3.8,12.745,10.762,3.748,17.409,7.861,34.745,11.235,52.225,1.536,7.96-.787,14.817-10.19,16.287-9.1,1.423-13.5-3.872-15.409-11.92-1.479-6.233-2.711-12.524-4.363-20.241-7.227,10-13.569,19.243-20.379,28.128-57.3,74.747-132.843,118.742-225.718,133-13.6,2.087-27.519,2.208-41.307,2.916-9.634.495-18.472-1.323-19.568-13.169-.819-8.846,5.978-12.985,18.979-13.412,111.964-3.678,198.691-52.7,260.93-145.556a8.948,8.948,0,0,0,.751-2.267c.994-.913,2.9-2.171,1.648-3.186C-1503.853,1518.7-1506.186,1519.562-1507.923,1519.684Z" transform="translate(1861.34 -1393.276)"/><path class="cls-3" d="M-1522.1,1706.656c0-23.615-.094-47.23.036-70.844.076-13.792,4.517-18.251,18.14-18.539q12.21-.258,24.428.005c10.658.214,16.659,5.317,16.655,16.464q-.022,73.9-.024,147.8c-.006,9.528-5.209,14.107-14.447,14.238q-15.265.217-30.535.013c-9.534-.128-13.7-5.022-13.6-14.665.267-24.82.089-49.644.089-74.466Z" transform="translate(1861.34 -1393.276)"/><path class="cls-3" d="M-1605.217,1737.983c0-14.237.173-28.478-.056-42.712-.174-10.794,4.647-15.648,15.534-15.178,9.339.4,18.717.317,28.063.021,10.223-.323,15.159,4.6,15.239,14.512q.348,42.7.449,85.4c.031,10.253-4.675,16-15.509,15.832-9.354-.141-18.72-.279-28.065.035-11.606.389-16.036-5.27-15.742-16.42C-1604.94,1765.652-1605.217,1751.814-1605.217,1737.983Z" transform="translate(1861.34 -1393.276)"/><path class="cls-3" d="M-1629.488,1754.856c0,8.93.11,17.862-.031,26.79-.145,9.233-4.591,14.185-14.24,14.277-9.3.088-18.605,1.123-27.889.908-12.445-.289-16.395-4.8-16.738-17.133-.462-16.612.745-33.225-.789-49.857-1-10.868,4.731-16.782,15.691-17.211,9.727-.38,19.486-.261,29.222-.029,9.873.235,14.693,5.723,14.761,15.464C-1629.438,1737-1629.487,1745.925-1629.488,1754.856Z" transform="translate(1861.34 -1393.276)"/><path class="cls-3" d="M-1713.684,1762.286c0,6.088-.235,12.187.05,18.261.545,11.585-5.8,16.284-16.345,16.352-46.188.3-42.808,3.027-42.612-40.107.132-29.2.415-29.582,29.909-29.582C-1713.684,1727.21-1713.684,1727.21-1713.684,1762.286Z" transform="translate(1861.34 -1393.276)"/><path class="cls-4" d="M-1754.755,1590.892c.812,1.807,1.578,3.363,2.218,4.969,1.829,4.589,1.2,8.795-3.141,11.43-4.744,2.881-9.163,1.555-12.414-2.785-8.439-11.263-16.659-22.691-25.142-33.921-3.306-4.375-3.972-8.664-.1-12.686,3.9-4.049,8.66-4.113,12.439-.029,3.55,3.838,4.548.777,6.064-1.485q44.174-65.917,88.387-131.809c2.174-3.231,2.424-5.452-.308-8.485-4.5-4.995-3.877-10.349,1.652-13.832,5.73-3.609,10.154-.376,13.784,4.5q33.339,44.805,66.8,89.518c9.071,12.147,18.081,24.339,27.244,36.416,3.9,5.145,7.92,10.549,1.723,16.128-6.485,5.839-11.1,1.255-15.047-4.18-1.972-2.715-3.857-4.487-8.046-3.088-17.124,5.719-34.382,11.051-51.681,16.223-4.779,1.428-4.586,4.348-4.493,8.293.458,19.51-8.153,32.344-25.333,38.387-14.779,5.2-30.9-.25-41.824-14.953-3.989-5.369-7.2-7.9-14.073-4.422C-1741.706,1587.953-1748.308,1588.974-1754.755,1590.892Zm45.911-14.372c4.754,9.252,12.272,13,21.549,11.373a17.952,17.952,0,0,0,14.7-14.293c.885-3.932,2.511-10.2-6.435-6.631C-1688.6,1570.787-1698.669,1573.322-1708.844,1576.52Z" transform="translate(1861.34 -1393.276)"/><path class="cls-4" d="M-1580.15,1485.207c-8.675,1.906-13.019-.559-14.817-5.918-1.882-5.61.9-10.35,6.3-12.014,10.98-3.387,22.19-6.046,33.349-8.832,6.008-1.5,10.147,1.552,11.634,6.941,1.563,5.662-1.639,10.114-6.946,11.764C-1561.271,1480.456-1572.133,1483.055-1580.15,1485.207Z" transform="translate(1861.34 -1393.276)"/><path class="cls-4" d="M-1562.408,1429.892c.787,4.547-1.6,7.687-4.864,10.193-8.3,6.364-16.746,12.536-25.072,18.867-5.377,4.088-10.571,3.256-14.245-1.722-3.708-5.023-2.629-10.357,2.521-14.276,8.615-6.556,17.135-13.265,26.065-19.368C-1571.263,1418.98-1563.454,1422.444-1562.408,1429.892Z" transform="translate(1861.34 -1393.276)"/><path class="cls-4" d="M-1592.093,1403.6a15.108,15.108,0,0,1-1.378,4.7q-8.266,13.951-16.937,27.664c-3.282,5.181-7.812,7.789-13.665,4.042-5.562-3.559-6-8.859-2.949-14.146,5.4-9.367,11.19-18.507,16.889-27.7,2.589-4.175,6.571-5.6,11.2-4.574C-1594.546,1394.561-1592.3,1397.627-1592.093,1403.6Z" transform="translate(1861.34 -1393.276)"/><path class="cls-3" d="M-640.991,1755.443c13.4,10.457,13.378,28.219-.392,38.337-14.876,10.932-31.913,5.335-48.066,6.2-3.168.169-1.925-3.281-1.712-5.2,2.8-25.177,5.771-50.333,8.481-75.522.488-4.539,2.342-5.739,6.283-5.577,9.1.373,18.21.206,27.307.545,9.026.336,16.974,3.124,20.141,13.514,2.992,9.817-.577,18.4-10.165,25.8A19.834,19.834,0,0,0-640.991,1755.443Zm-20.592-4.805c10.414-.029,15.168-4.1,15.2-12.921.04-9.716-6.337-10.1-12.795-9.832-13.14.543-6.178,12.164-8.235,18.578C-669.415,1752.716-663.708,1749.725-661.583,1750.638Zm-9.517,27.2c-2.99,7.46,1.278,8.4,7.305,7.7,2.032-.237,4.112-.056,6.128-.377,7.44-1.185,9.147-6.894,9.01-13.83-.14-7.027-4.769-7.67-9.778-7.915C-669.566,1762.868-669.564,1762.813-671.1,1777.837Z" transform="translate(1861.34 -1393.276)"/><path class="cls-3" d="M-1071.86,1755.558c10.3,7.579,12.555,13.021,10.121,23.4-2.655,11.322-12.654,20.391-24.579,21.137-10.268.642-20.6.115-30.891.355-3.447.08-4.638-.911-4.175-4.832q4.576-38.731,8.789-77.511c.473-4.4,3-3.872,5.594-3.876,8.241-.013,16.483-.1,24.721.046,13.3.232,20.922,5.088,23.149,14.515C-1056.555,1739.7-1060.269,1747.661-1071.86,1755.558Zm-18.016,8.243c-10.989-.121-11.533,1.138-12.129,16.992-.233,6.211,2.892,5.529,6.492,5.576,11.5.149,16.463-3.69,16.762-12.919C-1078.451,1764.174-1084.047,1763.475-1089.876,1763.8Zm-1.387-12.989c10.554-.189,14.68-4.251,14.492-13.442-.195-9.508-6.644-8.9-12.431-9.052-7.209-.193-8.893,3.86-8.995,18.141C-1098.249,1753.779-1093.3,1749.461-1091.263,1750.812Z" transform="translate(1861.34 -1393.276)"/><path class="cls-3" d="M-1358.948,1714.254c6.009,0,10.9.055,15.8-.016,4.18-.061,5.337,3.088,6.365,6.57,2.989,10.134,6.041,20.247,9.652,32.322,4.9-9.268,9.687-16.539,12.769-24.572,4.857-12.657,12.606-17.492,25.817-13.212-6.211,10.214-11.918,20.834-18.745,30.534-9.695,13.774-15.974,28.528-15.894,46.136.012,2.8.7,7.446-2.894,8.014a48.449,48.449,0,0,1-14.81-.422c-1.841-.286-1.053-3.391-.586-5.05,5.612-19.924.242-37.923-7.841-55.633C-1352.794,1731.313-1355.461,1723.272-1358.948,1714.254Z" transform="translate(1861.34 -1393.276)"/><path class="cls-3" d="M-1054.091,1781.451c1.377-12.97,2.165-25.375,4.157-37.551,1.541-9.418,9.049-3.557,13.733-4.545,5.305-1.12,3.312,3.81,3.068,6.428-1,10.745-2.392,21.449-3.36,32.2-.264,2.929-1.43,6.816,2.122,8.444,3.527,1.617,6.18-1.044,8.5-3.5,3.934-4.159,5.937-9.363,6.569-15.239.679-6.312,1.44-12.614,2.138-18.924.947-8.57,8.019-12.722,15.769-9.566,3.026,1.231,1.955,3.516,1.751,5.44q-2.659,25.091-5.558,50.151c-.269,2.342.091,5.656-3.393,5.5-3.684-.162-8.732,2.079-10.69-2.006-2.685-5.6-4.661-3.6-7.847-1.2-6.158,4.652-12.974,6.6-19.809,2.131C-1053.2,1795.125-1054.117,1788.053-1054.091,1781.451Z" transform="translate(1861.34 -1393.276)"/><path class="cls-3" d="M-1245.108,1777.3c1.091-9.826,1.894-21.882,3.908-33.7,1.626-9.544,9.074-3.147,13.7-4.187,4.97-1.117,3.279,3.567,2.982,6.432-1.146,11.018-2.4,22.022-3.487,33.047-.268,2.737-.835,6.018,2.14,7.522,2.72,1.376,5.2-.206,7.238-2.12a24.017,24.017,0,0,0,7.645-15.537c.843-8.182,1.714-16.371,2.926-24.5,1.485-9.949,8.738-3.851,13.225-4.895,5.6-1.3,3.844,3.4,3.468,6.716-1.785,15.721-3.407,31.464-5.331,47.165-.322,2.622,1.219,7.253-3.6,7.025-3.829-.182-9.006,2.371-11.039-2.971-2.012-5.29-3.619-3-6.157-.967-6.259,5.009-13.235,7.559-20.481,3.132C-1245.077,1795.124-1245.68,1787.347-1245.108,1777.3Z" transform="translate(1861.34 -1393.276)"/><path class="cls-3" d="M-900.457,1747.874c8.915-7.605,16.8-14.441,26.679-7.9,9.542,6.312,7.379,17.05,6.5,26.8-.824,9.162-2.24,18.262-3.041,27.426-1,11.444-8.875,4.927-13.483,5.8-6.48,1.227-3.762-4.582-3.48-7.712.966-10.744,2.3-21.449,3.373-32.182.276-2.763.767-6.009-2.44-7.321-2.782-1.138-5.166.406-7.21,2.358-4.873,4.653-7.242,10.719-8.035,17.533-.807,6.93-1.254,13.914-2.209,20.818-.328,2.37,1.374,6.52-2.915,6.6-4.622.087-9.4,1.3-13.823-.862-.627-.306-.572-2.86-.415-4.322q2.589-24.128,5.334-48.235c.449-3.963.068-8.416,6.129-7.787C-904.669,1739.387-899.392,1738.227-900.457,1747.874Z" transform="translate(1861.34 -1393.276)"/><path class="cls-3" d="M-1251.028,1764.715c-.232,23.76-19.09,41.487-37.876,35.7a20.105,20.105,0,0,1-10.8-7.691c-6.972-9.731-6.51-26.909,1.014-39.444,7.044-11.737,19.3-17.394,30.981-14.3C-1257.056,1741.8-1250.9,1751.3-1251.028,1764.715Zm-36.5,9.9c.435,4.7-.944,11.746,6.16,12.934,6.755,1.129,9.605-4.763,11.449-10.653a38.083,38.083,0,0,0,1.617-16.762c-.479-3.392-1.076-7.045-5.087-7.879a8.279,8.279,0,0,0-9.219,3.778C-1286.176,1761.344-1287.254,1767.469-1287.532,1774.618Z" transform="translate(1861.34 -1393.276)"/><path class="cls-3" d="M-544.822,1800.848c-14.185-.026-22.626-9.919-22.539-26.417.106-20.3,14.121-37.159,30.776-37.03,13.452.105,22.921,11.291,22.769,26.9C-514.015,1784.769-527.682,1800.879-544.822,1800.848Zm13.87-36.395c-.36-5.1.621-11.545-5.981-12.832-6.389-1.246-9.384,4.009-11.31,9.552a37.861,37.861,0,0,0-1.978,17.681c.471,3.422,1,7.115,4.894,8.108,4.155,1.059,7.443-.517,9.808-4.363C-532.163,1777.14-531.133,1771.006-530.952,1764.453Z" transform="translate(1861.34 -1393.276)"/><path class="cls-3" d="M-624.955,1774.354c.105-24.443,19.429-42.169,38.434-35.307a19.2,19.2,0,0,1,11.331,9.864c6.366,13.21,4.172,25.943-3.041,37.717-6.939,11.326-17.088,16.005-29.643,13.743C-618.791,1798.4-625.016,1788.8-624.955,1774.354Zm36.082-9.574c-.508-4.867,1.327-12.007-6.031-13.174-6.842-1.085-9.682,4.868-11.384,10.74-1.648,5.687-2.643,11.608-1.364,17.676.666,3.157,1.21,6.256,4.818,6.992a8.029,8.029,0,0,0,8.619-3.145C-590.075,1778.467-589.048,1772.029-588.873,1764.78Z" transform="translate(1861.34 -1393.276)"/><path class="cls-3" d="M-835.88,1800.847c-14.751.1-22.876-7.536-24.767-22.325-3.088-24.154,17.393-45.873,37.329-39.695,6.82,2.113,11.779,6.316,12.467,14.114.731,8.276-3.7,13.568-10.484,16.845-5.131,2.476-10.645,3.255-16.008,4.735-2.216.611-6.814-1.327-6.419,4.015.328,4.444,2.383,7.83,6.974,8.378,4.489.536,8.791,0,12.468-3.176,4.331-3.739,7.432-1.753,10.233,2.355,3.864,5.669-2.062,6.265-4.042,8.187A23.331,23.331,0,0,1-835.88,1800.847Zm-6.825-37.105c5.229-.646,9.412-1.57,13.22-3.8,2.452-1.437,4.177-3.726,2.876-6.945-1.361-3.365-4.419-3.065-6.826-2.276C-838.962,1752.531-841.225,1757.3-842.7,1763.742Z" transform="translate(1861.34 -1393.276)"/><path class="cls-3" d="M-399.854,1800.39c-14.779.011-23.611-9.331-23.862-25.24-.286-18.153,9.723-33.166,24.808-37.119a21.433,21.433,0,0,1,17.071,2.284c10.5,6.293,11.045,20.12.9,27.092-5.783,3.974-12.392,5.49-19.16,6.5-2.5.372-6.8-.6-6.638,4.106.148,4.356,2.433,7.872,6.878,8.684a14.456,14.456,0,0,0,12.463-3.309c4.348-3.7,7.415-1.874,10.3,2.314,3.923,5.7-1.99,6.356-3.966,8.181C-386.751,1799.126-391.585,1800.384-399.854,1800.39Zm-5.716-37.506c5.408-.146,9.893-1.09,13.911-3.874a5.234,5.234,0,0,0,1.935-6.632c-.979-2.489-3.241-2.542-5.3-2.187C-401.468,1751.3-403.867,1756.3-405.57,1762.884Z" transform="translate(1861.34 -1393.276)"/><path class="cls-3" d="M-443.924,1800.391c-10.886-.061-15.657-5.206-15.1-16.475.373-7.582,1.833-15.107,2.112-22.688.146-3.965,4.325-9.851-4.24-11.361-2.485-.438-2.436-9.312,1.368-9.79,7.766-.976,8.1-6.925,9.927-12.331.9-2.667,1.269-6.142,4-6.973,2.715-.828,6.1-1.152,8.629-.112,3.184,1.31,1.509,5.171.939,7.544-1.77,7.371-.846,11.756,7.522,10.4,3.21-.521,4.206,1.561,3.551,4.605-.646,3,.832,8.407-4.311,7.408-9.7-1.885-10.246,4.691-10.771,11.961-.342,4.736-1.1,9.437-1.452,14.172-.344,4.6-3.122,10.79,5.958,8.856,3.854-.821,3.973,4.724,5.228,7.594,1.5,3.426-1.777,3.993-3.686,5.113A16.36,16.36,0,0,1-443.924,1800.391Z" transform="translate(1861.34 -1393.276)"/><path class="cls-3" d="M-980.026,1801.689c-4.579-.12-8.672-.83-12.288-3.04-2.433-1.488-7.191-2.1-4.605-7.049,2.054-3.93,4.141-9.179,10.071-5.646a17.924,17.924,0,0,0,3.093,1.81c4.284,1.466,9.292,3.114,11.5-2.571,2.315-5.951-2.986-7.328-6.672-8.767-7.273-2.838-13.655-6.2-13.559-16.2.087-9.044,5.273-17.385,13.413-20.438,8.874-3.328,17.358-2.223,25.105,3.736,2.477,1.9,1.042,3.759-.348,5.458-1.993,2.435-3,6.462-7.519,4.394-4.972-2.275-11.971-6.536-14.5.867-2.856,8.374,6.432,7.772,10.772,10.311,9.331,5.459,12.17,15.918,6.3,25.688C-964.211,1798.486-971.893,1801.056-980.026,1801.689Z" transform="translate(1861.34 -1393.276)"/><path class="cls-3" d="M-792.155,1800.848c-4.157.031-8.313-.365-11.889-2.767-2.338-1.572-6.97-2.243-3.934-7.326,2.233-3.74,4.238-8.1,9.582-5.408,1.322.666,2.516,1.655,3.867,2.224,4.4,1.853,9.137,2.7,11.177-3.088,1.932-5.48-2.914-6.763-6.3-8.337-12.92-6.013-16.129-11.32-13.278-22.347,2.641-10.219,13.376-17.623,24.168-16.2a33.513,33.513,0,0,1,9.986,3.351c2.348,1.141,6.535,2.075,3.979,6.5-1.871,3.236-3.664,7.873-8.806,5.192a12.318,12.318,0,0,0-2.426-1.1c-4.24-1.127-9.647-3.314-11.765,2.027-2.515,6.34,3.6,7.3,7.434,9.094,11.085,5.2,14.343,10.6,12.394,20.711C-770.024,1794.059-779.576,1800.963-792.155,1800.848Z" transform="translate(1861.34 -1393.276)"/><path class="cls-3" d="M-745.8,1800.924c-4.476-.209-8.46.088-11.783-2.251-2.491-1.755-8.023-1.661-5.532-7.31,2.025-4.593,4.733-9.425,10.8-5.336.249.168.5.335.76.482,4.719,2.651,10.456,4.727,13.048-1.5,2.9-6.977-4-7.75-8.032-9.536-12.785-5.664-16.109-17.238-8.062-28.685,7.2-10.241,24.2-12.431,33.474-4.415,1.766,1.526,3.352,2.77,1.343,5.243-2.172,2.674-3.228,7.254-8.093,5.271-2.7-1.1-5.262-2.678-8.394-2.431-3,.237-6.143-.06-6.929,4.1-.661,3.5,1.651,5.152,4.094,6.483a43.793,43.793,0,0,0,4.061,1.769c6.912,2.9,12.973,6.838,12.655,16.088-.324,9.424-4.885,15.892-12.909,19.8C-738.948,1800.47-742.692,1800.475-745.8,1800.924Z" transform="translate(1861.34 -1393.276)"/><path class="cls-3" d="M-494.331,1800.214c-4.828.573-8.7.049-12-2.1-2.523-1.647-7.889-2.075-4.769-7.753,2.242-4.078,4.557-8.713,10.249-5.01a23.427,23.427,0,0,0,4.717,2.512c4.013,1.444,7.971.994,9.662-3.589,1.8-4.878-2.165-6.566-5.368-8.149-14.157-7-17.013-11.46-14.267-22.547,3.824-15.435,26.126-22.163,37.136-11.357,2.021,1.983,2.141,3.415.692,5.547-1.9,2.8-3.545,6.341-7.579,4.777-3.324-1.29-6.536-2.748-10.17-2.4-2.466.236-4.727.863-5.427,3.841-.706,3,1.034,4.779,3.16,6.074a34.733,34.733,0,0,0,4.822,2.245c7.986,3.322,13.989,8.081,12.649,18.809a22.173,22.173,0,0,1-18.288,19.06A30.532,30.532,0,0,1-494.331,1800.214Z" transform="translate(1861.34 -1393.276)"/><path class="cls-3" d="M-348.646,1748.676c5.2-4.948,7.961-9.307,12.905-10.412,4.211-.942,7.32-.43,6.014,5.459-1.2,5.393.3,12.359-9.185,11.543-5.55-.477-8.553,6.44-9.718,12.02a183.058,183.058,0,0,0-3.7,26.191c-.706,11.616-8.489,5.579-13.092,6.42-6.56,1.2-3.817-4.341-3.49-7.529,1.549-15.092,3.16-30.179,4.977-45.235.468-3.874-.811-9.207,6.1-8.764C-352.368,1738.719-347.635,1738.694-348.646,1748.676Z" transform="translate(1861.34 -1393.276)"/><path class="cls-3" d="M-1162.637,1749.476c1.506-2.582,2.318-4.777,3.753-6.277,3.559-3.722,8.935-6.871,12.348-2.889,2.92,3.407-.907,9.519-1.525,14.466-.188,1.5-1.773,1.491-2.885,1.337-10.553-1.461-13.043,6.857-14.8,15-1.66,7.69-2.311,15.661-3.058,23.546-1.025,10.833-8.519,4.577-12.9,5.48-6.484,1.335-3.86-4.237-3.517-7.5,1.625-15.465,3.278-30.929,5.155-46.359.353-2.9-1.021-7.739,4.485-7.141,4.294.467,10.062-2.162,10.693,6.013C-1164.833,1745.963-1164.118,1746.706-1162.637,1749.476Z" transform="translate(1861.34 -1393.276)"/><path class="cls-3" d="M-941.827,1800.043c-7.431,1.872-8.275-1.651-7.287-8.642,2.127-15.067,3.672-30.245,4.968-45.426.994-11.658,8.944-6.284,13.965-6.735,6.855-.614,3.131,5.567,2.905,8.207-1.248,14.546-3.64,28.992-4.555,43.551C-932.331,1798.957-934.724,1802.052-941.827,1800.043Z" transform="translate(1861.34 -1393.276)"/><path class="cls-3" d="M-933.063,1732.25c-6.115-.51-9.69-3.739-9.883-10.1-.209-6.882,3.919-10.987,9.633-11.161,5.779-.177,10.039,3.9,10.07,10.676C-923.212,1728.535-927.312,1731.674-933.063,1732.25Z" transform="translate(1861.34 -1393.276)"/><line class="cls-5" y1="421.405" x2="1568.681" y2="421.405"/></g></svg>