<?xml version="1.0" encoding="utf-8"?>
<!-- Generator: Adobe Illustrator 23.1.0, SVG Export Plug-In . SVG Version: 6.00 Build 0)  -->
<svg version="1.1" id="Layer_1" xmlns="http://www.w3.org/2000/svg" xmlns:xlink="http://www.w3.org/1999/xlink" x="0px" y="0px"
	 viewBox="0 0 595.28 841.89" style="enable-background:new 0 0 595.28 841.89;" xml:space="preserve">
<style type="text/css">
	.st0{fill:#121623;}
	.st1{fill:none;}
	.st2{fill:#31C1D4;}
</style>
<path class="st0" d="M4.89,2234.33c-198.3,0-396.61-0.01-594.91,0.09c-3.75,0-4.59-0.84-4.59-4.59c0.1-396.94,0.1-793.88,0-1190.82
	c0-3.75,0.84-4.59,4.59-4.59c396.94,0.1,793.88,0.1,1190.82,0c3.75,0,4.59,0.84,4.59,4.59c-0.1,396.94-0.1,793.88,0,1190.82
	c0,3.75-0.84,4.59-4.59,4.59C402.17,2234.32,203.53,2234.33,4.89,2234.33z"/>
<g>
	<path class="st1" d="M-201.66,1625.83c-0.84,0.02-1.88-0.37-1.84,1.21c0.04,1.56,1.12,0.86,1.82,1.06c0.83-0.14,2.1,0.34,2.16-1.02
		C-199.45,1625.65-200.69,1625.81-201.66,1625.83z"/>
	<path class="st1" d="M-201.93,1623.6c0.78-0.13,1.96,0.35,2.07-0.9c0.1-1.17-0.99-1.05-1.75-0.97c-0.7,0.07-1.84-0.59-1.87,0.95
		C-203.5,1624-202.54,1623.45-201.93,1623.6z"/>
	<path class="st1" d="M-134.53,1626.8c0.55,1.96,1.94,1.01,2.99,1.18c0.43,0.07,0.81-0.31,0.89-0.78c0.09-0.58-0.42-0.79-0.79-0.86
		c-1.08-0.22-2.19-0.32-3.28-0.47c0.74,1.07,2.21,0.48,3.18,1.27c-0.75,0.58-1.51,0.55-1.97,0.05c-1.02-1.1-2.21-0.82-3.43-0.69
		C-136.12,1626.68-134.74,1626.07-134.53,1626.8z"/>
	<path class="st1" d="M-123.74,1626.8c0.55,1.96,1.94,1.01,2.99,1.18c0.43,0.07,0.81-0.31,0.89-0.78c0.09-0.58-0.42-0.79-0.79-0.86
		c-1.08-0.22-2.19-0.32-3.28-0.47c0.74,1.07,2.21,0.48,3.18,1.27c-0.75,0.58-1.51,0.55-1.97,0.05c-1.02-1.1-2.21-0.82-3.43-0.69
		C-125.33,1626.68-123.95,1626.07-123.74,1626.8z"/>
	<path class="st1" d="M-209.33,1584.88c-0.57-1.13-1.64-0.92-2.58-0.5c-1.59,0.71-2.3,2.1-2.74,3.9c1.5-0.26,2.88-0.46,4.15-1.09
		C-209.53,1586.71-208.76,1586.02-209.33,1584.88z"/>
	<path class="st1" d="M-324.26,1582.11c1.69,0.11,2.93-0.71,3.56-2.37c0.39-1.02,0.28-2.07,0.4-3.11c0.3-2.53-1.11-4.28-3.52-4.41
		c-2.46-0.13-4.07,1.43-4.05,4.45c0.08,0.55,0.18,1.59,0.38,2.62C-327.14,1581.04-325.95,1582-324.26,1582.11z"/>
	<path class="st1" d="M-191.63,1584.11c2.72-0.11,4.15-1.56,4.08-4.15c-0.06-2.05-0.92-2.63-3.93-2.63
		c-2.53-0.01-2.53-0.01-2.78,2.53c-0.04,0.43-0.07,0.86-0.13,1.28C-194.82,1584.23-194.82,1584.23-191.63,1584.11z"/>
	<path class="st1" d="M-195.03,1594.91c0.49-0.04,0.99-0.01,1.48-0.01c0.43,0,0.87,0.01,1.3,0c2.56-0.08,3.89-1.39,3.99-3.9
		c0.08-2.04-0.74-2.85-3.07-3.04c-3.79-0.31-3.8-0.31-4.24,2.77c-0.15,1.04-0.21,2.09-0.41,3.12
		C-196.14,1594.71-195.83,1594.97-195.03,1594.91z"/>
	<path class="st1" d="M-248.18,1621.72c-1.9-0.04-3.29,1.33-3.27,3.23c0.02,1.81,1.33,3.11,3.17,3.13c1.81,0.02,3.03-1.27,3.01-3.19
		C-245.29,1623.07-246.5,1621.75-248.18,1621.72z"/>
	<path class="st1" d="M-220.67,1621.77c-0.8,0.09-2.23-0.58-1.88,1.16c-0.06,0.93-0.15,1.86,1.09,1.68c0.94-0.14,2.29,0.2,2.41-1.34
		C-218.98,1622.21-219.64,1621.65-220.67,1621.77z"/>
	<path class="st1" d="M-103.35,1623.55c0.81-0.01,1.96,0.26,2.09-0.89c0.14-1.22-0.98-0.93-1.88-1.01
		c-0.44,0.39-1.71-0.66-1.73,0.95C-104.89,1623.85-104.02,1623.56-103.35,1623.55z"/>
	<path class="st1" d="M-102.94,1625.83c-0.75,0.06-1.92-0.62-1.95,1.06c-0.02,1.45,0.89,1.14,1.82,1.16
		c0.79-0.09,2.09,0.38,2.16-1.1C-100.85,1625.56-102.07,1625.75-102.94,1625.83z"/>
	<path class="st1" d="M-90.6,1621.61c-1.88,0.02-3.14,1.3-3.14,3.15c0.01,1.86,1.45,3.28,3.3,3.26c1.61-0.02,2.87-1.42,2.88-3.22
		C-87.54,1622.88-88.78,1621.59-90.6,1621.61z"/>
	<path class="st1" d="M-32.24,1621.68c-0.9,0.06-2.02-0.25-1.64,1.28c-0.24,1.12,0.24,1.54,1.27,1.43c0.93-0.1,2.15,0.18,2.22-1.29
		C-30.33,1621.86-31.17,1621.61-32.24,1621.68z"/>
	<path class="st2" d="M-201.23,1599.38c2.97-0.08,5.94,0.06,8.91-0.05c3.04-0.11,5.86-0.95,7.95-3.37c3.23-3.74,2.54-8-1.66-10.27
		c0.01-0.32,0.28-0.36,0.49-0.48c3.26-1.86,4.61-4.63,3.81-7.84c-0.66-2.64-3.16-4.33-6.77-4.42c-3.21-0.07-6.43,0-9.65-0.04
		c-0.81-0.01-1.19,0.17-1.3,1.08c-0.94,7.98-1.93,15.96-2.94,23.94C-202.5,1598.91-202.44,1599.42-201.23,1599.38z M-194.39,1581.14
		c0.06-0.43,0.09-0.86,0.13-1.28c0.25-2.54,0.25-2.54,2.78-2.53c3.01,0.01,3.88,0.58,3.93,2.63c0.07,2.59-1.36,4.05-4.08,4.15
		C-194.82,1584.23-194.82,1584.23-194.39,1581.14z M-195.98,1593.86c0.19-1.03,0.26-2.08,0.41-3.12c0.44-3.08,0.45-3.08,4.24-2.77
		c2.33,0.19,3.15,1,3.07,3.04c-0.09,2.51-1.42,3.81-3.99,3.9c-0.43,0.01-0.87,0-1.3,0c-0.49,0-0.99-0.03-1.48,0.01
		C-195.83,1594.97-196.14,1594.71-195.98,1593.86z"/>
	<path class="st2" d="M-264.41,1599.42c1.57,0.17,1.96-0.48,2.07-1.94c0.2-2.71,0.65-5.41,0.96-8.12c0.09-0.76,0.23-1.22,1.19-1.19
		c2.48,0.07,4.96,0.07,7.44,0c1.04-0.03,1.04,0.41,0.92,1.22c-0.27,1.78-0.41,3.57-0.66,5.35c-0.68,4.78-0.69,4.74,4.1,4.68
		c1.03-0.01,1.33-0.31,1.44-1.32c0.8-6.89,1.67-13.77,2.51-20.66c0.18-1.45,1.06-3.43,0.24-4.21c-0.8-0.76-2.82-0.17-4.28-0.31
		c-1.2-0.12-1.44,0.46-1.54,1.48c-0.3,2.89-0.72,5.78-1.03,8.67c-0.08,0.76-0.32,1.07-1.13,1.06c-2.54-0.04-5.08-0.02-7.62,0.02
		c-0.73,0.01-0.93-0.18-0.82-0.94c0.29-1.9,0.44-3.81,0.71-5.72c0.65-4.64,0.67-4.59-4.04-4.55c-1.15,0.01-1.44,0.39-1.56,1.43
		c-0.98,8.29-2.01,16.58-3.05,25.02C-267.12,1599.39-265.75,1599.27-264.41,1599.42z"/>
	<path class="st2" d="M-204.96,1595.33c-0.75-0.94-1.49-2.13-3.03-1.31c-0.6,0.32-1.15,0.73-1.77,1c-2.41,1.06-4.58,0.29-5.18-1.78
		c-0.3-1.03-0.19-1.61,1.1-1.67c2.23-0.11,4.4-0.63,6.43-1.56c2.32-1.06,3.56-2.99,3.34-5.07c-0.21-2.03-1.89-3.82-4.23-4.4
		c-0.65-0.16-1.35-0.14-1.47-0.15c-7.03-0.01-11.97,6.42-10.65,13.13c0.8,4.05,4.08,6.53,8.18,6.18c2.4-0.2,4.61-0.93,6.38-2.62
		C-205.4,1596.65-204.08,1596.43-204.96,1595.33z M-211.91,1584.37c0.93-0.42,2.01-0.62,2.58,0.5c0.58,1.14-0.19,1.84-1.16,2.31
		c-1.28,0.62-2.66,0.83-4.15,1.09C-214.21,1586.47-213.5,1585.08-211.91,1584.37z"/>
	<path class="st2" d="M-319.14,1618.71c-0.06,1.83,0.43,3.68,0.71,5.51c0.11,0.71,0.39,1.36,1.32,1.19c0.71-0.13,0.8-0.68,0.79-0.78
		c-0.46-3.43-0.86-6.37-1.26-9.31c-0.12-0.87-0.73-1.18-1.46-1.47c-3.26-1.3-6.49-2.68-9.77-3.95c-0.94-0.36-1.25-0.81-1.33-1.84
		c-0.4-5.24-0.94-10.48-1.4-15.71c-0.07-0.79-0.11-1.62-1.17-1.47c-0.89,0.13-0.81,0.9-0.75,1.62c0.36,3.94,0.8,7.88,0.99,11.83
		c0.11,2.37,0.92,4.72,0.07,7.14c-2.36,6.68-4.65,13.39-6.94,20.09c-0.24,0.71-0.83,1.63,0.33,2.02c1.1,0.36,1.27-0.59,1.54-1.37
		c2.07-6.06,4.16-12.12,6.25-18.18c0.89-2.58,0.86-2.51,3.34-1.65c1.3,0.46,1.69,0.89,1.12,2.35c-2.19,5.56-4.21,11.18-6.29,16.78
		c-0.29,0.79-0.91,1.76,0.32,2.18c1.09,0.37,1.25-0.73,1.52-1.43c2.05-5.48,4.13-10.96,6.07-16.48c0.57-1.62,1.09-1.93,2.76-1.22
		C-320.4,1615.4-319.05,1616.23-319.14,1618.71z"/>
	<path class="st2" d="M-333.59,1589.52c0.1-0.07,0.21-0.13,0.3-0.21c2.6-2.38,5.21-1.08,7.75,0.05c2.14,0.96,2.42,2.94,2.42,5.01
		c0,3.78,0.04,7.57-0.02,11.35c-0.02,1.16,0.36,1.79,1.45,2.24c2.45,1.01,4.82,2.2,7.28,3.2c1.04,0.42,1.46,0.93,1.52,2.11
		c0.16,3.4,0.48,6.79,0.83,10.17c0.08,0.76-0.15,2.05,1.15,1.95c1.45-0.11,0.91-1.4,0.86-2.21c-0.16-2.34-0.78-4.71-0.59-7.01
		c0.37-4.36-1.32-6.87-5.53-8.04c-1.72-0.48-4.06-0.96-4.78-2.44c-0.75-1.55-0.17-3.76-0.17-5.86c1.29,0.53,2.37,0.96,3.44,1.41
		c1.08,0.45,2.16,0.91,3.24,1.35c0.66,0.27,1.39,0.52,1.76-0.32c0.37-0.83-0.26-1.21-0.94-1.49c-1.36-0.57-2.72-1.16-4.08-1.72
		c-3.46-1.43-3.52-1.43-3.45-5.23c0.05-2.8-0.93-5.02-3.47-6.26c-3.12-1.52-6.33-2.7-9.56-0.16c-1.22,0.96-2.39,1.99-3.71,2.79
		c-2.37,1.45-3.71,3.24-3.56,6.24c0.14,2.89-0.32,5.8-0.5,8.7c-0.04,0.68,0.16,1.27,0.98,1.28c0.7,0.01,0.93-0.5,0.97-1.12
		c0.08-1.3,0.21-2.59,0.25-3.89C-339.52,1593.93-339.53,1593.93-333.59,1589.52z"/>
	<path class="st2" d="M-280.65,1599.02c-2.11,0-4.22,0.08-6.32-0.03c-1.43-0.07-1.82,0.5-1.8,1.83c0.06,3.59-0.06,7.19,0.06,10.78
		c0.05,1.47-0.44,1.71-1.76,1.68c-4.15-0.09-8.3,0.02-12.45-0.06c-1.64-0.03-2.2,0.63-2.15,2.2c0.11,3.59,0.08,7.18,0.21,10.76
		c0.05,1.25-0.35,1.58-1.56,1.53c-2.16-0.1-4.34-0.03-6.5-0.03c-2.23,0-4.46,0.03-6.69-0.01c-1.08-0.02-1.61,0.31-1.55,1.49
		c0.07,1.36,0.03,2.73,0.01,4.09c-0.01,0.66,0.26,1.13,0.91,1.17c0.67,0.04,0.97-0.43,0.96-1.09c-0.01-0.56,0.07-1.12-0.01-1.67
		c-0.22-1.54,0.2-2.14,1.95-2.07c4.08,0.16,8.18-0.03,12.26,0.09c1.76,0.05,2.24-0.57,2.18-2.26c-0.12-3.47,0.05-6.94-0.08-10.4
		c-0.05-1.46,0.42-1.71,1.75-1.68c4.15,0.09,8.3-0.02,12.45,0.06c1.62,0.03,2.2-0.58,2.17-2.18c-0.08-3.53,0.07-7.06-0.07-10.59
		c-0.06-1.54,0.48-1.87,1.86-1.76c1.35,0.11,2.72,0.03,4.09,0.02c0.74,0,1.62,0.11,1.6-1
		C-279.15,1598.87-279.98,1599.02-280.65,1599.02z"/>
	<path class="st2" d="M-222.7,1585.69c1.76,0.46,1.77-0.54,1.96-1.63c0.08-0.49,0.22-0.97,0.26-1.46c0.05-0.63,0.62-1.37-0.06-1.88
		c-0.69-0.52-1.51-0.31-2.3-0.03c-1.61,0.57-2.49,1.94-3.79,3.49c0-0.76-0.02-1.13,0-1.5c0.12-1.66-0.83-2.18-2.29-2.16
		c-1.3,0.02-2.56-0.42-2.73,1.83c-0.37,5.05-1.04,10.08-1.79,15.09c-0.26,1.71,0.11,2.04,1.75,1.99c3.59-0.12,3.53-0.04,3.99-3.67
		c0.34-2.62,0.28-5.34,1.6-7.76C-225.36,1586.64-224.39,1585.25-222.7,1585.69z"/>
	<path class="st2" d="M-151.31,1619.15c-0.99-0.02-1.98-0.02-2.98,0c-0.46,0.01-1.11-0.19-1.2,0.51c-0.09,0.66-0.42,1.71,0.08,1.94
		c1.8,0.81,0.51,2.15,0.86,3.2c-1.2-1.17-2.39-2.31-3.14-3.68c-0.96-1.76-2.32-2.22-4.12-2c-0.57,0.07-1.42-0.22-1.46,0.69
		c-0.02,0.67-0.52,1.6,0.75,1.96c0.82,0.24,0.99,5.77,0.26,6.23c-0.05,0.03-0.12,0.03-0.18,0.03c-1.41,0.09-0.77,1.2-0.82,1.85
		c-0.09,0.97,0.77,0.74,1.35,0.75c1.05,0.02,2.11,0.01,3.16-0.02c0.45-0.02,1.12,0.24,1.22-0.47c0.09-0.65,0.33-1.67-0.21-1.92
		c-1.81-0.82-0.47-2.17-0.6-3.32c1.22,1.61,2.5,3.17,3.64,4.84c0.76,1.11,1.8,1.02,2.8,0.85c1.18-0.21,0.71-1.27,0.73-1.99
		c0.04-1.92,0-3.84-0.02-5.76c0-0.48-0.2-0.97,0.57-1.12c1.27-0.25,0.65-1.3,0.65-1.97C-150,1618.96-150.79,1619.16-151.31,1619.15z
		"/>
	<path class="st2" d="M-240.11,1599.39c2.79,0,2.78,0,3.11-2.76c0.48-4.06,1-8.11,1.45-12.18c0.45-4.04,0.42-3.99-3.69-3.96
		c-1.13,0.01-1.45,0.37-1.56,1.45c-0.53,4.93-1.16,9.84-1.74,14.76C-242.86,1599.39-242.84,1599.39-240.11,1599.39z"/>
	<path class="st2" d="M-27.8,1627.86c-1.2-0.12-1.56-1.37-0.73-2.01c1.38-1.06,1.67-2.48,1.23-3.98c-0.47-1.62-1.73-2.56-3.43-2.7
		c-1.17-0.1-2.35-0.02-3.53-0.02c0-0.01,0-0.02,0-0.04c-1.05,0-2.11,0.01-3.16-0.01c-0.52-0.01-1.06-0.02-1.05,0.68
		c0.01,0.63-0.42,1.68,0.36,1.79c1.34,0.19,0.96,1.04,0.98,1.75c0.03,1.18,0,2.35-0.02,3.53c-0.01,0.42,0.1,0.95-0.49,1.05
		c-1.47,0.23-0.75,1.4-0.77,2.07c-0.04,0.96,0.92,0.52,1.45,0.56c0.98,0.07,1.97,0.05,2.95,0.01c0.57-0.03,1.37,0.13,1.34-0.83
		c-0.02-0.59,0.53-1.47-0.61-1.6c-0.66-0.08-0.72-0.52-0.54-0.91c0.28-0.63,0.94-0.42,1.25-0.12c0.66,0.62,1.41,1.28,1.31,2.33
		c-0.11,1.08,0.45,1.26,1.34,1.16c0.55-0.06,1.1,0.01,1.65-0.03c0.65-0.05,1.58,0.44,1.59-0.88
		C-26.68,1628.77-26.38,1628-27.8,1627.86z M-32.61,1624.39c-1.02,0.11-1.51-0.31-1.27-1.43c-0.38-1.53,0.74-1.22,1.64-1.28
		c1.07-0.07,1.91,0.18,1.85,1.42C-30.46,1624.57-31.68,1624.29-32.61,1624.39z"/>
	<path class="st2" d="M-216.35,1628.04c-0.78,0.05-1.04-0.6-1.33-1.12c-0.38-0.69,0.34-0.79,0.68-1.07c1.19-1,1.41-2.33,1.07-3.7
		c-0.33-1.32-1.21-2.28-2.59-2.65c-1.52-0.4-3.07-0.26-4.61-0.3c-0.99,0-1.98,0.04-2.97-0.01c-0.57-0.03-1.03,0.05-1.03,0.7
		c0,0.62-0.46,1.62,0.37,1.75c1.17,0.18,0.96,0.88,0.97,1.57c0.01,1.23,0,2.47-0.03,3.71c-0.01,0.44,0.2,0.99-0.56,1.14
		c-1.34,0.27-0.66,1.41-0.7,2.1c-0.05,0.81,0.83,0.45,1.29,0.48c1.11,0.06,2.22,0.04,3.34,0.01c0.45-0.01,1.14,0.18,1.1-0.59
		c-0.03-0.58,0.61-1.45-0.45-1.71c-0.76-0.19-0.97-0.71-0.59-1.19c0.42-0.53,1.01-0.21,1.41,0.25c0.44,0.51,1.11,1.04,1.03,1.7
		c-0.2,1.63,0.73,1.64,1.87,1.54c0.49-0.05,0.99-0.02,1.48,0c0.72,0.04,1.37,0.09,1.28-0.99
		C-215.4,1628.91-214.95,1627.94-216.35,1628.04z M-221.46,1624.6c-1.24,0.18-1.15-0.75-1.09-1.68c-0.35-1.74,1.08-1.07,1.88-1.16
		c1.04-0.12,1.7,0.45,1.62,1.49C-219.17,1624.8-220.52,1624.47-221.46,1624.6z"/>
	<path class="st2" d="M-98.5,1623.88c1.18-1.98,0.4-3.72-1.81-4.47c-1.52-0.52-3.07-0.18-4.41-0.26c-1.18,0-2.17-0.02-3.16,0.01
		c-0.44,0.02-1.19-0.3-1.22,0.4c-0.03,0.67-0.39,1.8,0.35,1.99c1.15,0.31,0.83,1.02,0.84,1.68c0.02,1.05,0.02,2.1-0.04,3.15
		c-0.04,0.68,0.49,1.58-0.91,1.75c-0.66,0.08-0.24,1.09-0.32,1.67c-0.08,0.54,0.31,0.77,0.82,0.73c2.59-0.18,5.19,0.38,7.77-0.2
		c2.78-0.62,3.72-2.74,2.18-5.1C-98.75,1624.73-98.87,1624.49-98.5,1623.88z M-103.14,1621.65c0.9,0.08,2.03-0.21,1.88,1.01
		c-0.14,1.15-1.28,0.87-2.09,0.89c-0.67,0.01-1.54,0.31-1.52-0.94C-104.84,1620.99-103.58,1622.04-103.14,1621.65z M-103.07,1628.04
		c-0.93-0.02-1.84,0.29-1.82-1.16c0.03-1.68,1.2-1,1.95-1.06c0.87-0.07,2.09-0.26,2.03,1.12
		C-100.98,1628.42-102.29,1627.96-103.07,1628.04z"/>
	<path class="st2" d="M-197.23,1624.08c1.35-2.4,0.48-4.15-2.27-4.72c-2.33-0.48-4.69-0.04-7.04-0.14
		c-0.45-0.02-1.23-0.29-1.19,0.41c0.04,0.67-0.58,1.72,0.54,2.04c0.56,0.16,0.67,0.38,0.66,0.87c-0.02,1.61-0.02,3.22-0.02,4.83
		c0,0.32,0,0.61-0.43,0.66c-1.5,0.16-0.78,1.36-0.77,2.02c0.01,0.94,0.94,0.51,1.48,0.55c0.86,0.07,1.73,0.02,2.79,0.02
		c1.35-0.1,2.89,0.21,4.43-0.23c2.66-0.76,3.48-2.74,2.01-5.09C-197.27,1624.91-197.59,1624.73-197.23,1624.08z M-201.6,1621.73
		c0.76-0.08,1.85-0.2,1.75,0.97c-0.11,1.24-1.29,0.76-2.07,0.9c-0.61-0.15-1.57,0.4-1.55-0.91
		C-203.45,1621.14-202.31,1621.81-201.6,1621.73z M-201.68,1628.11c-0.7-0.2-1.78,0.5-1.82-1.06c-0.04-1.58,1-1.2,1.84-1.21
		c0.97-0.02,2.21-0.18,2.14,1.26C-199.59,1628.45-200.85,1627.97-201.68,1628.11z"/>
	<path class="st2" d="M-183.62,1619.21c-0.62,0-1.24,0-1.86,0c0-0.02,0-0.05,0-0.07c-0.37,0-0.75-0.05-1.11,0.01
		c-0.6,0.1-1.59-0.41-1.68,0.58c-0.06,0.71-0.66,2,0.98,2.06c0.43,0.02,0.34,0.41,0.33,0.72c-0.05,1.17-0.09,2.35-0.12,3.52
		c-0.04,1.27-0.69,1.91-1.95,2.02c-1.32,0.11-1.99-0.66-2.2-1.79c-0.18-0.96-0.12-1.97-0.11-2.96c0.01-0.73-0.3-1.58,1.04-1.69
		c0.75-0.06,0.35-1.04,0.41-1.6c0.06-0.63-0.43-0.84-0.98-0.85c-1.23-0.02-2.46-0.02-3.7-0.01c-0.5,0-1.13,0.04-1.19,0.63
		c-0.07,0.58-0.31,1.61,0.16,1.74c1.69,0.46,0.95,1.76,1.11,2.71c0.16,0.91,0.05,1.86,0.2,2.77c0.45,2.64,2.57,3.97,5.9,3.76
		c2.55-0.16,4.43-2.02,4.52-4.51c0.04-1.11,0.03-2.23,0.03-3.34c0-0.53-0.19-1.04,0.74-1.13c1.18-0.11,0.6-1.15,0.65-1.79
		C-182.37,1619.17-183.05,1619.21-183.62,1619.21z"/>
	<path class="st2" d="M-229.74,1619.38c-1.05-0.07-2.1-0.13-3.15-0.14c-0.46-0.01-1.09-0.2-1.27,0.44c-0.18,0.65-0.21,1.79,0.19,1.9
		c1.83,0.49,0.75,1.92,1.13,2.81c-0.24,1.47,0.43,3.34-1.88,3.69c-1.36,0.2-2.25-0.44-2.36-1.73c-0.14-1.55-1.1-3.42,0.72-4.55
		c0.86-0.54,0.46-1.15,0.57-1.7c0.13-0.63-0.47-0.91-0.97-0.82c-1.24,0.23-2.46,0.01-3.69-0.02c-0.46-0.01-1.16,0.02-1.22,0.59
		c-0.06,0.62-0.38,1.64,0.32,1.86c1.23,0.39,0.96,1.22,0.97,2.04c0.01,0.87-0.01,1.74,0.07,2.6c0.26,2.96,2.39,4.67,5.65,4.57
		c2.88-0.09,4.87-2.05,4.96-4.92c0.03-1.05,0.03-2.1,0.03-3.16c0-0.43-0.13-0.84,0.57-0.9c1.33-0.12,0.76-1.21,0.77-1.88
		C-228.33,1619.08-229.18,1619.41-229.74,1619.38z"/>
	<path class="st2" d="M-248.24,1619.05c-3.9,0.01-6.39,2.31-6.39,5.88c0,3.65,2.61,6.09,6.48,6.06c3.7-0.03,6.16-2.47,6.2-6.15
		C-241.92,1621.39-244.47,1619.04-248.24,1619.05z M-248.28,1628.07c-1.84-0.02-3.15-1.32-3.17-3.13c-0.02-1.9,1.37-3.27,3.27-3.23
		c1.68,0.04,2.89,1.36,2.91,3.17C-245.26,1626.8-246.47,1628.09-248.28,1628.07z"/>
	<path class="st2" d="M-90.45,1618.8c-3.8-0.02-6.53,2.53-6.5,6.06c0.03,3.57,2.55,5.87,6.42,5.89c3.82,0.02,6.21-2.28,6.27-6
		C-84.2,1621.35-86.83,1618.82-90.45,1618.8z M-90.44,1628.02c-1.85,0.02-3.29-1.4-3.3-3.26c-0.01-1.86,1.26-3.13,3.14-3.15
		c1.83-0.02,3.06,1.27,3.05,3.19C-87.57,1626.6-88.82,1628-90.44,1628.02z"/>
	<path class="st2" d="M-40.25,1626.63c-0.63-0.09-1.61-0.38-1.87,0.32c-0.51,1.36-1.52,0.68-2.32,0.82
		c-0.58,0.1-1.07,0.01-1.12-0.81c-0.06-0.92,0.55-0.84,1.08-0.83c0.97,0.02,1.73,0.14,1.72-1.36c-0.01-1.49-0.87-1.24-1.68-1.19
		c-1.34,0.09-1.25-0.74-0.97-1.54c0.18-0.53,2.74-0.45,2.9,0.11c0.37,1.31,1.59,1,2.03,0.72c1.06-0.66,0.36-1.91,0.44-2.91
		c0.07-0.95-0.61-0.85-1.25-0.84c-2.47,0.02-4.95,0-7.42,0.02c-0.5,0-1.2-0.29-1.26,0.61c-0.05,0.69-0.38,1.64,0.55,1.88
		c0.84,0.22,0.69,0.7,0.69,1.23c0.01,1.3,0.02,2.6,0.01,3.89c-0.01,0.57,0.17,1.15-0.8,1.34c-0.83,0.16-0.49,1.14-0.51,1.75
		c-0.03,0.79,0.68,0.75,1.22,0.76c1.3,0.02,2.59,0.01,3.89,0.01c0,0.01,0,0.01,0,0.02c0.8,0,1.6,0,2.41,0c2.71,0,2.72,0,2.67-2.76
		C-39.84,1627.4-39.54,1626.74-40.25,1626.63z"/>
	<path class="st2" d="M-138.53,1627.92c0-0.47,0.23-1.12-0.46-1.23c-0.64-0.1-1.66-0.31-1.86,0.35c-0.44,1.44-1.48,0.74-2.26,0.87
		c-0.69,0.12-1.19-0.07-1.22-0.95c-0.02-0.91,0.61-0.75,1.13-0.81c0.76-0.08,1.69,0.4,1.74-1.14c0.05-1.67-0.9-1.42-1.88-1.43
		c-0.35,0-0.82,0.08-0.92-0.38c-0.07-0.34-0.06-0.77,0.1-1.06c0.26-0.5,2.8-0.47,2.92,0.06c0.29,1.39,1.57,1.11,2,0.81
		c1.04-0.73,0.38-2.03,0.44-3.09c0.06-1.01-0.72-0.74-1.31-0.73c-2.41,0.01-4.82,0.02-7.24,0.01c-0.59,0-1.36-0.3-1.38,0.68
		c-0.01,0.65-0.48,1.6,0.65,1.81c0.59,0.11,0.67,0.42,0.67,0.89c0,1.48,0.01,2.97,0,4.45c0,0.5,0.01,0.91-0.72,1.04
		c-1.11,0.2-0.59,1.2-0.64,1.84c-0.06,0.83,0.69,0.71,1.22,0.71c1.3,0.02,2.6,0.01,3.9,0.01c0,0,0,0.01,0,0.01
		c1.24,0,2.48-0.07,3.71,0.02c1.13,0.08,1.64-0.26,1.43-1.45C-138.58,1628.8-138.52,1628.36-138.53,1627.92z"/>
	<path class="st2" d="M-66.75,1623.55c-0.67-0.07-1.37-0.13-1.99-0.37c-0.67-0.25-0.79-0.88-0.16-1.27
		c0.83-0.51,2.33-0.63,2.54,0.02c0.58,1.72,1.74,0.82,2.58,0.82c0.73,0,0.38-0.89,0.45-1.39c0.15-1.18-0.63-1.62-1.57-1.94
		c-1.81-0.61-3.59-0.75-5.4,0.04c-1.48,0.64-2.29,1.72-2.21,3.29c0.09,1.69,1.17,2.66,2.78,3.03c0.48,0.11,1,0.04,1.47,0.16
		c0.8,0.2,1.79,0.05,2.28,0.96c0.16,0.31-0.08,0.62-0.36,0.77c-0.94,0.51-1.91,0.29-2.88,0.08c-0.38-0.08-0.44-0.35-0.46-0.68
		c-0.03-0.67-0.43-0.88-1.01-0.66c-0.6,0.22-1.67-0.6-1.79,0.63c-0.09,0.99-0.38,2.14,0.86,2.79c1.18,0.62,2.4,0.97,3.59,0.85
		c0.39,0,0.63,0,0.88,0c2.62-0.05,4.38-1.41,4.51-3.46C-62.52,1625.27-64.14,1623.84-66.75,1623.55z"/>
	<path class="st2" d="M-77.51,1623.55c-0.67-0.07-1.36-0.16-1.99-0.38c-0.55-0.19-0.78-0.76-0.26-1.15
		c0.85-0.63,2.34-0.79,2.64-0.04c0.62,1.51,1.65,0.76,2.46,0.82c0.84,0.05,0.51-0.8,0.58-1.29c0.17-1.12-0.44-1.73-1.43-2.05
		c-1.67-0.54-3.34-0.82-5.06-0.18c-1.8,0.68-2.87,2.02-2.72,3.52c0.18,1.73,1.37,2.8,3.41,3.08c0.85,0.12,1.72,0.21,2.54,0.45
		c0.6,0.18,0.95,0.65,0.37,1.26c-0.69,0.73-3.15,0.39-3.43-0.57c-0.36-1.26-1.24-0.36-1.83-0.61c-0.43-0.18-0.96-0.05-1.01,0.47
		c-0.1,1.22-0.32,2.51,1.23,3.14c1.1,0.45,2.21,0.77,3.25,0.65c0.41,0,0.65,0,0.9,0c2.6-0.06,4.38-1.45,4.46-3.5
		C-73.29,1625.2-74.86,1623.84-77.51,1623.55z"/>
	<path class="st2" d="M-129.88,1623.94c-0.95-0.32-1.94-0.35-2.92-0.43c-0.48-0.04-1.01-0.22-1.12-0.8
		c-0.04-0.2,0.06-0.54,0.22-0.64c0.89-0.58,2.36-0.76,2.64-0.03c0.6,1.54,1.63,0.81,2.44,0.84c0.81,0.03,0.52-0.8,0.6-1.3
		c0.18-1.14-0.48-1.72-1.43-2.06c-1.36-0.49-2.78-0.66-4.2-0.39c-1.74,0.33-3.24,1.11-3.52,3.05c-0.27,1.87,0.8,3.01,2.46,3.68
		c1.1,0.15,2.2,0.26,3.28,0.47c0.37,0.08,0.88,0.29,0.79,0.86c-0.08,0.48-0.46,0.85-0.89,0.78c-1.05-0.16-2.44,0.78-2.99-1.18
		c-0.21-0.73-1.59-0.12-2.41-0.32c-0.48,1.43-0.71,2.85,1,3.6c2.05,0.91,4.19,0.98,6.32,0.2c1.52-0.55,2.32-1.69,2.26-3.26
		C-127.41,1625.43-128.38,1624.45-129.88,1623.94z"/>
	<path class="st2" d="M-119.08,1623.94c-0.95-0.32-1.94-0.35-2.92-0.43c-0.48-0.04-1.01-0.22-1.12-0.8
		c-0.04-0.2,0.06-0.54,0.22-0.64c0.89-0.58,2.36-0.76,2.64-0.03c0.6,1.54,1.63,0.81,2.44,0.84c0.81,0.03,0.52-0.8,0.6-1.3
		c0.18-1.14-0.48-1.72-1.43-2.06c-1.36-0.49-2.78-0.66-4.2-0.39c-1.74,0.33-3.24,1.11-3.52,3.05c-0.27,1.87,0.8,3.01,2.46,3.68
		c1.1,0.15,2.2,0.26,3.28,0.47c0.37,0.07,0.88,0.29,0.79,0.86c-0.08,0.48-0.46,0.85-0.89,0.78c-1.05-0.16-2.44,0.78-2.99-1.18
		c-0.21-0.73-1.59-0.12-2.41-0.32c-0.48,1.43-0.71,2.85,1,3.6c2.05,0.91,4.19,0.98,6.32,0.2c1.52-0.55,2.32-1.69,2.26-3.26
		C-116.62,1625.43-117.59,1624.45-119.08,1623.94z"/>
	<path class="st2" d="M-174.88,1623.77c-0.84-0.19-1.74-0.12-2.56-0.35c-0.7-0.19-1.39-0.83-0.46-1.41c0.8-0.51,2.05-0.9,2.65,0.33
		c0.55,1.13,1.39,0.42,2.07,0.57c0.49,0.11,0.85-0.18,0.82-0.73c-0.04-0.77,0.24-1.58-0.57-2.21c-1.74-1.36-6.17-1.23-7.67,0.37
		c-0.89,0.95-1.24,2.1-0.73,3.42c0.74,1.91,2.39,2.1,4.08,2.32c0.86,0.11,2.29-0.06,2.17,1.1c-0.13,1.33-1.59,0.74-2.5,0.8
		c-0.55,0.03-1.13-0.11-1.13-0.91c0-0.47-0.39-0.71-0.75-0.57c-0.68,0.25-1.82-0.62-2.02,0.59c-0.16,0.96-0.42,2.13,0.83,2.79
		c1.18,0.63,2.41,0.93,3.74,0.89c0.56-0.03,1.12-0.03,1.67-0.11c2.1-0.3,3.49-1.64,3.59-3.4
		C-171.58,1625.62-172.79,1624.26-174.88,1623.77z"/>
	<path class="st2" d="M-257.03,1619.24c-0.67-0.1-1.36-0.09-2.03-0.09c-1.79,0-2.37,0.56-1.79,2.2c0.34,0.97,0.11,1.47-0.57,2.16
		c-0.77-1.02-0.77-1.02-0.5-2.06c0.46-1.79-0.07-2.47-1.86-2.2c-0.94,0.14-1.84,0.05-2.76-0.02c-0.52-0.04-1.08,0.05-1.04,0.72
		c0.04,0.57-0.41,1.42,0.28,1.68c2.19,0.85,2.7,3.07,3.98,4.65c0.41,0.5,1.09,1.55-0.58,1.84c-0.95,0.17-0.43,1.25-0.45,1.92
		c-0.03,0.76,0.63,0.58,1.09,0.59c1.11,0.01,2.23,0.05,3.34,0c0.53-0.03,1.45,0.42,1.43-0.59c-0.01-0.68,0.72-1.85-0.8-2
		c-0.69-0.07-0.58-0.65-0.45-0.98c0.76-1.97,1.81-3.94,3.48-5.07c1-0.67,0.97-1.24,0.95-1.99
		C-255.37,1618.75-256.41,1619.33-257.03,1619.24z"/>
	<path class="st2" d="M-54.24,1619.14c-0.74,0-1.49,0-2.23,0c0-0.01,0-0.02,0-0.03c-1.36,0-2.73,0.08-4.08-0.02
		c-1.34-0.11-1.81,0.41-1.62,1.69c0.06,0.43,0.02,0.87,0.08,1.3c0.08,0.59-0.38,1.54,0.79,1.48c0.8-0.04,2.01,0.56,2.04-1.05
		c0.01-0.34,0.17-0.6,0.56-0.58c0.43,0.03,0.45,0.39,0.44,0.68c-0.01,1.61-0.04,3.22-0.1,4.83c-0.01,0.19-0.22,0.53-0.36,0.54
		c-1.68,0.17-0.88,1.45-0.79,2.12c0.13,0.97,1.09,0.4,1.69,0.43c0.93,0.04,1.86,0,2.79,0.01c0.64,0.01,1.35,0.07,1.24-0.88
		c-0.07-0.59,0.68-1.6-0.72-1.64c-0.81-0.03-0.55-0.69-0.56-1.12c-0.02-1.36,0.02-2.72,0.02-4.09c0-0.38-0.07-0.81,0.41-0.9
		c0.48-0.09,0.63,0.28,0.66,0.68c0.11,1.65,1.38,0.88,2.11,0.91c0.99,0.04,0.6-0.85,0.6-1.4
		C-51.26,1619.14-51.26,1619.14-54.24,1619.14z"/>
	<path class="st2" d="M-323.34,1584.11c2.44-0.27,4.49-2.37,4.79-4.91c0.09-0.73,0.17-1.47,0.26-2.2c0.5-3.86-1.92-6.64-5.79-6.64
		c-3.26,0-5.68,2.01-5.84,5.17c-0.08,1.57,0.08,3.2,0.57,4.74C-328.5,1582.91-326.13,1584.42-323.34,1584.11z M-323.82,1572.23
		c2.41,0.13,3.81,1.88,3.52,4.41c-0.12,1.04-0.01,2.09-0.4,3.11c-0.64,1.66-1.88,2.48-3.56,2.37c-1.69-0.11-2.88-1.07-3.22-2.82
		c-0.2-1.03-0.31-2.07-0.38-2.62C-327.89,1573.66-326.28,1572.09-323.82,1572.23z"/>
	<path class="st2" d="M-165.29,1628.06c-0.78-0.05-0.69-0.52-0.69-1c-0.01-1.23-0.04-2.47-0.01-3.7c0.02-0.7-0.38-1.53,0.93-1.77
		c0.73-0.13,0.37-1.18,0.35-1.81c-0.02-0.67-0.6-0.66-1.11-0.66c-0.62,0-1.23,0-1.85,0c-0.49,0-0.99-0.03-1.48,0.01
		c-0.55,0.05-1.49-0.31-1.4,0.64c0.05,0.64-0.82,1.89,0.79,1.95c0.39,0.02,0.52,0.22,0.51,0.59c-0.02,1.67-0.02,3.33-0.04,5
		c0,0.3-0.01,0.67-0.43,0.68c-1.62,0.03-0.82,1.28-0.84,1.92c-0.04,1.09,0.96,0.66,1.55,0.69c1.05,0.04,2.1-0.08,3.14-0.02
		c0.75,0.04,1.27-0.13,1.25-0.93C-164.63,1629.06-164.17,1628.13-165.29,1628.06z"/>
	<path class="st2" d="M-237.31,1578.62c1.79-0.04,3.32-1.58,3.28-3.31c-0.04-1.79-1.58-3.2-3.41-3.15c-1.76,0.05-3.29,1.68-3.2,3.39
		C-240.55,1577.22-239,1578.66-237.31,1578.62z"/>
</g>
</svg>
